{
  "asset": {
    "version": "2.0",
    "generator": "GameFactory-3A deterministic import fixture"
  },
  "scene": 0,
  "scenes": [
    {"name": "ReferenceActorScene", "nodes": [0]}
  ],
  "nodes": [
    {"name": "ImportedActor", "children": [1, 2]},
    {"name": "RootBone"},
    {"name": "ActorMesh", "mesh": 0, "skin": 0}
  ],
  "meshes": [
    {
      "name": "ActorMesh",
      "primitives": [
        {
          "attributes": {"POSITION": 0, "JOINTS_0": 1, "WEIGHTS_0": 2},
          "indices": 3,
          "material": 0
        }
      ]
    }
  ],
  "materials": [
    {
      "name": "ExplorerTeal",
      "pbrMetallicRoughness": {
        "baseColorFactor": [0.12, 0.78, 0.68, 1.0],
        "metallicFactor": 0.15,
        "roughnessFactor": 0.48
      }
    }
  ],
  "skins": [
    {"name": "ExplorerSkin", "inverseBindMatrices": 4, "skeleton": 1, "joints": [1]}
  ],
  "animations": [
    {
      "name": "Walk",
      "samplers": [
        {"input": 5, "output": 6, "interpolation": "LINEAR"},
        {"input": 5, "output": 7, "interpolation": "LINEAR"}
      ],
      "channels": [
        {"sampler": 0, "target": {"node": 1, "path": "translation"}},
        {"sampler": 1, "target": {"node": 1, "path": "rotation"}}
      ]
    }
  ],
  "buffers": [
    {
      "byteLength": 488,
      "uri": "data:application/octet-stream;base64,"
    }
  ],
  "bufferViews": [
    {"buffer": 0, "byteOffset": 0, "byteLength": 96, "target": 34962},
    {"buffer": 0, "byteOffset": 96, "byteLength": 32, "target": 34962},
    {"buffer": 0, "byteOffset": 128, "byteLength": 128, "target": 34962},
    {"buffer": 0, "byteOffset": 256, "byteLength": 72, "target": 34963},
    {"buffer": 0, "byteOffset": 328, "byteLength": 64},
    {"buffer": 0, "byteOffset": 392, "byteLength": 12},
    {"buffer": 0, "byteOffset": 404, "byteLength": 36},
    {"buffer": 0, "byteOffset": 440, "byteLength": 48}
  ],
  "accessors": [
    {"bufferView": 0, "componentType": 5126, "count": 8, "type": "VEC3", "min": [-0.35, 0.0, -0.2], "max": [0.35, 1.2, 0.2]},
    {"bufferView": 1, "componentType": 5121, "count": 8, "type": "VEC4"},
    {"bufferView": 2, "componentType": 5126, "count": 8, "type": "VEC4"},
    {"bufferView": 3, "componentType": 5123, "count": 36, "type": "SCALAR"},
    {"bufferView": 4, "componentType": 5126, "count": 1, "type": "MAT4"},
    {"bufferView": 5, "componentType": 5126, "count": 3, "type": "SCALAR", "min": [0.0], "max": [1.0]},
    {"bufferView": 6, "componentType": 5126, "count": 3, "type": "VEC3"},
    {"bufferView": 7, "componentType": 5126, "count": 3, "type": "VEC4"}
  ]
}
